<mxfile host="app.diagrams.net" agent="Mozilla/5.0 (Windows NT 10.0; Win64; x64) AppleWebKit/537.36 (KHTML, like Gecko) Chrome/131.0.0.0 Safari/537.36" version="26.0.4" pages="2">
  <diagram id="g_XEfuYvXMbker1lZCX6" name="Page-1">
    <mxGraphModel dx="3073" dy="3247" grid="0" gridSize="10" guides="1" tooltips="1" connect="1" arrows="1" fold="1" page="0" pageScale="1" pageWidth="827" pageHeight="1169" math="0" shadow="0">
      <root>
        <mxCell id="0" />
        <mxCell id="1" parent="0" />
        <mxCell id="SKXFM6zhbV3h7SLT7Bc1-1" value="&lt;u&gt;Item&lt;/u&gt;" style="shape=umlLifeline;perimeter=lifelinePerimeter;whiteSpace=wrap;html=1;container=1;dropTarget=0;collapsible=0;recursiveResize=0;outlineConnect=0;portConstraint=eastwest;newEdgeStyle={&quot;curved&quot;:0,&quot;rounded&quot;:0};" vertex="1" parent="1">
          <mxGeometry x="1340" y="920" width="100" height="580" as="geometry" />
        </mxCell>
        <mxCell id="SKXFM6zhbV3h7SLT7Bc1-2" value="&lt;u&gt;Enemy&lt;/u&gt;" style="shape=umlLifeline;perimeter=lifelinePerimeter;whiteSpace=wrap;html=1;container=1;dropTarget=0;collapsible=0;recursiveResize=0;outlineConnect=0;portConstraint=eastwest;newEdgeStyle={&quot;curved&quot;:0,&quot;rounded&quot;:0};" vertex="1" parent="1">
          <mxGeometry x="1530" y="920" width="100" height="580" as="geometry" />
        </mxCell>
        <mxCell id="SKXFM6zhbV3h7SLT7Bc1-3" value="&lt;u&gt;TurnBaseBattle&lt;/u&gt;" style="shape=umlLifeline;perimeter=lifelinePerimeter;whiteSpace=wrap;html=1;container=1;dropTarget=0;collapsible=0;recursiveResize=0;outlineConnect=0;portConstraint=eastwest;newEdgeStyle={&quot;curved&quot;:0,&quot;rounded&quot;:0};" vertex="1" parent="1">
          <mxGeometry x="1130" y="920" width="110" height="580" as="geometry" />
        </mxCell>
        <mxCell id="SKXFM6zhbV3h7SLT7Bc1-4" value="" style="html=1;points=[[0,0,0,0,5],[0,1,0,0,-5],[1,0,0,0,5],[1,1,0,0,-5]];perimeter=orthogonalPerimeter;outlineConnect=0;targetShapes=umlLifeline;portConstraint=eastwest;newEdgeStyle={&quot;curved&quot;:0,&quot;rounded&quot;:0};fillColor=#000000;" vertex="1" parent="SKXFM6zhbV3h7SLT7Bc1-3">
          <mxGeometry x="50" y="50" width="10" height="30" as="geometry" />
        </mxCell>
        <mxCell id="SKXFM6zhbV3h7SLT7Bc1-5" value="&lt;u&gt;BattleUI&lt;/u&gt;" style="shape=umlLifeline;perimeter=lifelinePerimeter;whiteSpace=wrap;html=1;container=1;dropTarget=0;collapsible=0;recursiveResize=0;outlineConnect=0;portConstraint=eastwest;newEdgeStyle={&quot;curved&quot;:0,&quot;rounded&quot;:0};" vertex="1" parent="1">
          <mxGeometry x="900" y="920" width="120" height="580" as="geometry" />
        </mxCell>
        <mxCell id="SKXFM6zhbV3h7SLT7Bc1-6" value="" style="html=1;points=[[0,0,0,0,5],[0,1,0,0,-5],[1,0,0,0,5],[1,1,0,0,-5]];perimeter=orthogonalPerimeter;outlineConnect=0;targetShapes=umlLifeline;portConstraint=eastwest;newEdgeStyle={&quot;curved&quot;:0,&quot;rounded&quot;:0};fillColor=#000000;" vertex="1" parent="SKXFM6zhbV3h7SLT7Bc1-5">
          <mxGeometry x="55" y="50" width="10" height="450" as="geometry" />
        </mxCell>
        <mxCell id="SKXFM6zhbV3h7SLT7Bc1-7" value="" style="shape=umlLifeline;perimeter=lifelinePerimeter;whiteSpace=wrap;html=1;container=1;dropTarget=0;collapsible=0;recursiveResize=0;outlineConnect=0;portConstraint=eastwest;newEdgeStyle={&quot;curved&quot;:0,&quot;rounded&quot;:0};participant=umlActor;" vertex="1" parent="1">
          <mxGeometry x="705" y="910" width="30" height="580" as="geometry" />
        </mxCell>
        <mxCell id="SKXFM6zhbV3h7SLT7Bc1-8" value="" style="html=1;points=[[0,0,0,0,5],[0,1,0,0,-5],[1,0,0,0,5],[1,1,0,0,-5]];perimeter=orthogonalPerimeter;outlineConnect=0;targetShapes=umlLifeline;portConstraint=eastwest;newEdgeStyle={&quot;curved&quot;:0,&quot;rounded&quot;:0};fillColor=#000000;" vertex="1" parent="SKXFM6zhbV3h7SLT7Bc1-7">
          <mxGeometry x="10" y="60" width="10" height="440" as="geometry" />
        </mxCell>
        <mxCell id="SKXFM6zhbV3h7SLT7Bc1-9" value="&amp;nbsp;Customer" style="text;html=1;align=center;verticalAlign=middle;resizable=0;points=[];autosize=1;strokeColor=none;fillColor=none;" vertex="1" parent="1">
          <mxGeometry x="680" y="940" width="80" height="30" as="geometry" />
        </mxCell>
        <mxCell id="SKXFM6zhbV3h7SLT7Bc1-10" value="InputChar()" style="html=1;verticalAlign=bottom;endArrow=block;curved=0;rounded=0;" edge="1" parent="1">
          <mxGeometry x="0.0001" width="80" relative="1" as="geometry">
            <mxPoint x="719.6304347826087" y="1030" as="sourcePoint" />
            <mxPoint x="955" y="1030" as="targetPoint" />
            <mxPoint as="offset" />
          </mxGeometry>
        </mxCell>
        <mxCell id="SKXFM6zhbV3h7SLT7Bc1-11" value="ShowDialouge()" style="html=1;verticalAlign=bottom;endArrow=block;curved=0;rounded=0;exitX=0;exitY=1;exitDx=0;exitDy=-5;exitPerimeter=0;" edge="1" parent="1">
          <mxGeometry x="0.0047" width="80" relative="1" as="geometry">
            <mxPoint x="1180" y="1170" as="sourcePoint" />
            <mxPoint x="965" y="1170" as="targetPoint" />
            <mxPoint as="offset" />
          </mxGeometry>
        </mxCell>
        <mxCell id="SKXFM6zhbV3h7SLT7Bc1-12" value="Dungeon and wishes" style="shape=umlFrame;whiteSpace=wrap;html=1;pointerEvents=0;width=110;height=30;" vertex="1" parent="1">
          <mxGeometry x="650" y="1860" width="1260" height="710" as="geometry" />
        </mxCell>
        <mxCell id="SKXFM6zhbV3h7SLT7Bc1-13" value="&lt;u&gt;Player&lt;/u&gt;" style="shape=umlLifeline;perimeter=lifelinePerimeter;whiteSpace=wrap;html=1;container=1;dropTarget=0;collapsible=0;recursiveResize=0;outlineConnect=0;portConstraint=eastwest;newEdgeStyle={&quot;curved&quot;:0,&quot;rounded&quot;:0};" vertex="1" parent="1">
          <mxGeometry x="1720" y="920" width="100" height="580" as="geometry" />
        </mxCell>
        <mxCell id="SKXFM6zhbV3h7SLT7Bc1-14" value="" style="endArrow=open;endSize=12;dashed=1;html=1;rounded=0;" edge="1" parent="1">
          <mxGeometry width="160" relative="1" as="geometry">
            <mxPoint x="1582.5" y="1270" as="sourcePoint" />
            <mxPoint x="1197.5" y="1270" as="targetPoint" />
          </mxGeometry>
        </mxCell>
        <mxCell id="SKXFM6zhbV3h7SLT7Bc1-15" value="return()" style="text;html=1;align=center;verticalAlign=middle;resizable=0;points=[];autosize=1;strokeColor=none;fillColor=none;" vertex="1" parent="1">
          <mxGeometry x="1357.5" y="1240" width="60" height="30" as="geometry" />
        </mxCell>
        <mxCell id="SKXFM6zhbV3h7SLT7Bc1-16" value="&lt;u&gt;Skill&lt;/u&gt;" style="shape=umlLifeline;perimeter=lifelinePerimeter;whiteSpace=wrap;html=1;container=1;dropTarget=0;collapsible=0;recursiveResize=0;outlineConnect=0;portConstraint=eastwest;newEdgeStyle={&quot;curved&quot;:0,&quot;rounded&quot;:0};" vertex="1" parent="1">
          <mxGeometry x="1900" y="920" width="100" height="580" as="geometry" />
        </mxCell>
        <mxCell id="SKXFM6zhbV3h7SLT7Bc1-17" value="&lt;u&gt;Inventory&lt;/u&gt;" style="shape=umlLifeline;perimeter=lifelinePerimeter;whiteSpace=wrap;html=1;container=1;dropTarget=0;collapsible=0;recursiveResize=0;outlineConnect=0;portConstraint=eastwest;newEdgeStyle={&quot;curved&quot;:0,&quot;rounded&quot;:0};" vertex="1" parent="1">
          <mxGeometry x="2090" y="920" width="100" height="580" as="geometry" />
        </mxCell>
        <mxCell id="SKXFM6zhbV3h7SLT7Bc1-18" value="" style="html=1;points=[[0,0,0,0,5],[0,1,0,0,-5],[1,0,0,0,5],[1,1,0,0,-5]];perimeter=orthogonalPerimeter;outlineConnect=0;targetShapes=umlLifeline;portConstraint=eastwest;newEdgeStyle={&quot;curved&quot;:0,&quot;rounded&quot;:0};fillColor=#000000;" vertex="1" parent="SKXFM6zhbV3h7SLT7Bc1-17">
          <mxGeometry x="45" y="138" width="10" height="42" as="geometry" />
        </mxCell>
        <mxCell id="SKXFM6zhbV3h7SLT7Bc1-19" value="BattleUI()" style="html=1;verticalAlign=bottom;endArrow=block;curved=0;rounded=0;exitX=0;exitY=1;exitDx=0;exitDy=-5;exitPerimeter=0;" edge="1" parent="1" target="SKXFM6zhbV3h7SLT7Bc1-6">
          <mxGeometry x="0.0047" width="80" relative="1" as="geometry">
            <mxPoint x="1185" y="1000" as="sourcePoint" />
            <mxPoint x="970" y="1000" as="targetPoint" />
            <mxPoint as="offset" />
          </mxGeometry>
        </mxCell>
      </root>
    </mxGraphModel>
  </diagram>
  <diagram name="Page-2" id="URmJyw9HOhOyyearPYCD">
    <mxGraphModel dx="2327" dy="773" grid="1" gridSize="10" guides="1" tooltips="1" connect="1" arrows="1" fold="1" page="1" pageScale="1" pageWidth="827" pageHeight="1169" math="0" shadow="0">
      <root>
        <mxCell id="0" />
        <mxCell id="1" parent="0" />
        <mxCell id="VtCL2aZ2MKBCQQygjuYu-1" value="&lt;u&gt;:Assessments&lt;/u&gt;" style="shape=umlLifeline;perimeter=lifelinePerimeter;whiteSpace=wrap;html=1;container=1;dropTarget=0;collapsible=0;recursiveResize=0;outlineConnect=0;portConstraint=eastwest;newEdgeStyle={&quot;curved&quot;:0,&quot;rounded&quot;:0};" vertex="1" parent="1">
          <mxGeometry x="410" y="90" width="100" height="550" as="geometry" />
        </mxCell>
        <mxCell id="NwbqWwu3ObKQdLC_3_9J-5" value="" style="html=1;points=[[0,0,0,0,5],[0,1,0,0,-5],[1,0,0,0,5],[1,1,0,0,-5]];perimeter=orthogonalPerimeter;outlineConnect=0;targetShapes=umlLifeline;portConstraint=eastwest;newEdgeStyle={&quot;curved&quot;:0,&quot;rounded&quot;:0};fillColor=#000000;" vertex="1" parent="VtCL2aZ2MKBCQQygjuYu-1">
          <mxGeometry x="45" y="70" width="10" height="40" as="geometry" />
        </mxCell>
        <mxCell id="2_4SJRCk8D6IfQPEJtKi-10" value="" style="html=1;points=[[0,0,0,0,5],[0,1,0,0,-5],[1,0,0,0,5],[1,1,0,0,-5]];perimeter=orthogonalPerimeter;outlineConnect=0;targetShapes=umlLifeline;portConstraint=eastwest;newEdgeStyle={&quot;curved&quot;:0,&quot;rounded&quot;:0};fillColor=#000000;" vertex="1" parent="VtCL2aZ2MKBCQQygjuYu-1">
          <mxGeometry x="45" y="180" width="10" height="40" as="geometry" />
        </mxCell>
        <mxCell id="VtCL2aZ2MKBCQQygjuYu-3" value="&lt;u&gt;:Questions&lt;/u&gt;" style="shape=umlLifeline;perimeter=lifelinePerimeter;whiteSpace=wrap;html=1;container=1;dropTarget=0;collapsible=0;recursiveResize=0;outlineConnect=0;portConstraint=eastwest;newEdgeStyle={&quot;curved&quot;:0,&quot;rounded&quot;:0};" vertex="1" parent="1">
          <mxGeometry x="600" y="90" width="100" height="550" as="geometry" />
        </mxCell>
        <mxCell id="2_4SJRCk8D6IfQPEJtKi-14" value="" style="html=1;points=[[0,0,0,0,5],[0,1,0,0,-5],[1,0,0,0,5],[1,1,0,0,-5]];perimeter=orthogonalPerimeter;outlineConnect=0;targetShapes=umlLifeline;portConstraint=eastwest;newEdgeStyle={&quot;curved&quot;:0,&quot;rounded&quot;:0};fillColor=#000000;" vertex="1" parent="VtCL2aZ2MKBCQQygjuYu-3">
          <mxGeometry x="45" y="248.5" width="10" height="37" as="geometry" />
        </mxCell>
        <mxCell id="VtCL2aZ2MKBCQQygjuYu-5" value="&lt;u&gt;:TakeAssessment&lt;/u&gt;" style="shape=umlLifeline;perimeter=lifelinePerimeter;whiteSpace=wrap;html=1;container=1;dropTarget=0;collapsible=0;recursiveResize=0;outlineConnect=0;portConstraint=eastwest;newEdgeStyle={&quot;curved&quot;:0,&quot;rounded&quot;:0};" vertex="1" parent="1">
          <mxGeometry x="200" y="90" width="110" height="550" as="geometry" />
        </mxCell>
        <mxCell id="NwbqWwu3ObKQdLC_3_9J-6" value="" style="html=1;points=[[0,0,0,0,5],[0,1,0,0,-5],[1,0,0,0,5],[1,1,0,0,-5]];perimeter=orthogonalPerimeter;outlineConnect=0;targetShapes=umlLifeline;portConstraint=eastwest;newEdgeStyle={&quot;curved&quot;:0,&quot;rounded&quot;:0};fillColor=#000000;" vertex="1" parent="VtCL2aZ2MKBCQQygjuYu-5">
          <mxGeometry x="50" y="50" width="10" height="90" as="geometry" />
        </mxCell>
        <mxCell id="NwbqWwu3ObKQdLC_3_9J-7" value="" style="html=1;points=[[0,0,0,0,5],[0,1,0,0,-5],[1,0,0,0,5],[1,1,0,0,-5]];perimeter=orthogonalPerimeter;outlineConnect=0;targetShapes=umlLifeline;portConstraint=eastwest;newEdgeStyle={&quot;curved&quot;:0,&quot;rounded&quot;:0};fillColor=#FFFFFF;" vertex="1" parent="VtCL2aZ2MKBCQQygjuYu-5">
          <mxGeometry x="50" y="70" width="10" height="40" as="geometry" />
        </mxCell>
        <mxCell id="2_4SJRCk8D6IfQPEJtKi-4" value="" style="html=1;points=[[0,0,0,0,5],[0,1,0,0,-5],[1,0,0,0,5],[1,1,0,0,-5]];perimeter=orthogonalPerimeter;outlineConnect=0;targetShapes=umlLifeline;portConstraint=eastwest;newEdgeStyle={&quot;curved&quot;:0,&quot;rounded&quot;:0};fillColor=#000000;" vertex="1" parent="VtCL2aZ2MKBCQQygjuYu-5">
          <mxGeometry x="50" y="170" width="10" height="150" as="geometry" />
        </mxCell>
        <mxCell id="2_4SJRCk8D6IfQPEJtKi-11" value="" style="html=1;points=[[0,0,0,0,5],[0,1,0,0,-5],[1,0,0,0,5],[1,1,0,0,-5]];perimeter=orthogonalPerimeter;outlineConnect=0;targetShapes=umlLifeline;portConstraint=eastwest;newEdgeStyle={&quot;curved&quot;:0,&quot;rounded&quot;:0};" vertex="1" parent="VtCL2aZ2MKBCQQygjuYu-5">
          <mxGeometry x="50" y="180" width="10" height="40" as="geometry" />
        </mxCell>
        <mxCell id="2_4SJRCk8D6IfQPEJtKi-15" value="" style="html=1;points=[[0,0,0,0,5],[0,1,0,0,-5],[1,0,0,0,5],[1,1,0,0,-5]];perimeter=orthogonalPerimeter;outlineConnect=0;targetShapes=umlLifeline;portConstraint=eastwest;newEdgeStyle={&quot;curved&quot;:0,&quot;rounded&quot;:0};" vertex="1" parent="VtCL2aZ2MKBCQQygjuYu-5">
          <mxGeometry x="50" y="248" width="10" height="37" as="geometry" />
        </mxCell>
        <mxCell id="2_4SJRCk8D6IfQPEJtKi-23" value="" style="html=1;points=[[0,0,0,0,5],[0,1,0,0,-5],[1,0,0,0,5],[1,1,0,0,-5]];perimeter=orthogonalPerimeter;outlineConnect=0;targetShapes=umlLifeline;portConstraint=eastwest;newEdgeStyle={&quot;curved&quot;:0,&quot;rounded&quot;:0};fillColor=#000000;" vertex="1" parent="VtCL2aZ2MKBCQQygjuYu-5">
          <mxGeometry x="50" y="360" width="10" height="140" as="geometry" />
        </mxCell>
        <mxCell id="2_4SJRCk8D6IfQPEJtKi-24" value="" style="html=1;points=[[0,0,0,0,5],[0,1,0,0,-5],[1,0,0,0,5],[1,1,0,0,-5]];perimeter=orthogonalPerimeter;outlineConnect=0;targetShapes=umlLifeline;portConstraint=eastwest;newEdgeStyle={&quot;curved&quot;:0,&quot;rounded&quot;:0};" vertex="1" parent="VtCL2aZ2MKBCQQygjuYu-5">
          <mxGeometry x="50" y="377" width="10" height="30" as="geometry" />
        </mxCell>
        <mxCell id="2_4SJRCk8D6IfQPEJtKi-31" value="" style="html=1;points=[[0,0,0,0,5],[0,1,0,0,-5],[1,0,0,0,5],[1,1,0,0,-5]];perimeter=orthogonalPerimeter;outlineConnect=0;targetShapes=umlLifeline;portConstraint=eastwest;newEdgeStyle={&quot;curved&quot;:0,&quot;rounded&quot;:0};" vertex="1" parent="VtCL2aZ2MKBCQQygjuYu-5">
          <mxGeometry x="50" y="430" width="10" height="48" as="geometry" />
        </mxCell>
        <mxCell id="VtCL2aZ2MKBCQQygjuYu-13" value="&lt;u&gt;:TakeAssessmentUI&lt;/u&gt;" style="shape=umlLifeline;perimeter=lifelinePerimeter;whiteSpace=wrap;html=1;container=1;dropTarget=0;collapsible=0;recursiveResize=0;outlineConnect=0;portConstraint=eastwest;newEdgeStyle={&quot;curved&quot;:0,&quot;rounded&quot;:0};" vertex="1" parent="1">
          <mxGeometry x="-30" y="90" width="120" height="550" as="geometry" />
        </mxCell>
        <mxCell id="VtCL2aZ2MKBCQQygjuYu-14" value="" style="html=1;points=[[0,0,0,0,5],[0,1,0,0,-5],[1,0,0,0,5],[1,1,0,0,-5]];perimeter=orthogonalPerimeter;outlineConnect=0;targetShapes=umlLifeline;portConstraint=eastwest;newEdgeStyle={&quot;curved&quot;:0,&quot;rounded&quot;:0};fillColor=#000000;" vertex="1" parent="VtCL2aZ2MKBCQQygjuYu-13">
          <mxGeometry x="55" y="50" width="10" height="480" as="geometry" />
        </mxCell>
        <mxCell id="VtCL2aZ2MKBCQQygjuYu-15" value="" style="shape=umlLifeline;perimeter=lifelinePerimeter;whiteSpace=wrap;html=1;container=1;dropTarget=0;collapsible=0;recursiveResize=0;outlineConnect=0;portConstraint=eastwest;newEdgeStyle={&quot;curved&quot;:0,&quot;rounded&quot;:0};participant=umlActor;" vertex="1" parent="1">
          <mxGeometry x="-230" y="80" width="40" height="560" as="geometry" />
        </mxCell>
        <mxCell id="VtCL2aZ2MKBCQQygjuYu-16" value="" style="html=1;points=[[0,0,0,0,5],[0,1,0,0,-5],[1,0,0,0,5],[1,1,0,0,-5]];perimeter=orthogonalPerimeter;outlineConnect=0;targetShapes=umlLifeline;portConstraint=eastwest;newEdgeStyle={&quot;curved&quot;:0,&quot;rounded&quot;:0};fillColor=#000000;" vertex="1" parent="VtCL2aZ2MKBCQQygjuYu-15">
          <mxGeometry x="15" y="60" width="10" height="480" as="geometry" />
        </mxCell>
        <mxCell id="VtCL2aZ2MKBCQQygjuYu-17" value="Registered Customer" style="text;html=1;align=center;verticalAlign=middle;resizable=0;points=[];autosize=1;strokeColor=none;fillColor=none;" vertex="1" parent="1">
          <mxGeometry x="-280" y="110" width="140" height="30" as="geometry" />
        </mxCell>
        <mxCell id="VtCL2aZ2MKBCQQygjuYu-19" value="selectAssessCategory()" style="html=1;verticalAlign=bottom;endArrow=block;curved=0;rounded=0;" edge="1" parent="1">
          <mxGeometry width="80" relative="1" as="geometry">
            <mxPoint x="-210.36956521739125" y="250.0000000000001" as="sourcePoint" />
            <mxPoint x="25" y="250.0000000000001" as="targetPoint" />
          </mxGeometry>
        </mxCell>
        <mxCell id="VtCL2aZ2MKBCQQygjuYu-31" value="Your IELTS Book" style="shape=umlFrame;whiteSpace=wrap;html=1;pointerEvents=0;width=110;height=30;" vertex="1" parent="1">
          <mxGeometry x="-370" y="40" width="1500" height="640" as="geometry" />
        </mxCell>
        <mxCell id="NwbqWwu3ObKQdLC_3_9J-1" value="&lt;u&gt;:Answers&lt;/u&gt;" style="shape=umlLifeline;perimeter=lifelinePerimeter;whiteSpace=wrap;html=1;container=1;dropTarget=0;collapsible=0;recursiveResize=0;outlineConnect=0;portConstraint=eastwest;newEdgeStyle={&quot;curved&quot;:0,&quot;rounded&quot;:0};" vertex="1" parent="1">
          <mxGeometry x="790" y="90" width="100" height="550" as="geometry" />
        </mxCell>
        <mxCell id="2_4SJRCk8D6IfQPEJtKi-26" value="" style="html=1;points=[[0,0,0,0,5],[0,1,0,0,-5],[1,0,0,0,5],[1,1,0,0,-5]];perimeter=orthogonalPerimeter;outlineConnect=0;targetShapes=umlLifeline;portConstraint=eastwest;newEdgeStyle={&quot;curved&quot;:0,&quot;rounded&quot;:0};fillColor=#000000;" vertex="1" parent="NwbqWwu3ObKQdLC_3_9J-1">
          <mxGeometry x="45" y="377" width="10" height="30" as="geometry" />
        </mxCell>
        <mxCell id="NwbqWwu3ObKQdLC_3_9J-3" value="&lt;u&gt;:Results&lt;/u&gt;" style="shape=umlLifeline;perimeter=lifelinePerimeter;whiteSpace=wrap;html=1;container=1;dropTarget=0;collapsible=0;recursiveResize=0;outlineConnect=0;portConstraint=eastwest;newEdgeStyle={&quot;curved&quot;:0,&quot;rounded&quot;:0};" vertex="1" parent="1">
          <mxGeometry x="970" y="88" width="100" height="550" as="geometry" />
        </mxCell>
        <mxCell id="2_4SJRCk8D6IfQPEJtKi-30" value="" style="html=1;points=[[0,0,0,0,5],[0,1,0,0,-5],[1,0,0,0,5],[1,1,0,0,-5]];perimeter=orthogonalPerimeter;outlineConnect=0;targetShapes=umlLifeline;portConstraint=eastwest;newEdgeStyle={&quot;curved&quot;:0,&quot;rounded&quot;:0};fillColor=#000000;" vertex="1" parent="NwbqWwu3ObKQdLC_3_9J-3">
          <mxGeometry x="45" y="432" width="10" height="48" as="geometry" />
        </mxCell>
        <mxCell id="NwbqWwu3ObKQdLC_3_9J-8" value="getAssessCategory()" style="html=1;verticalAlign=bottom;endArrow=block;curved=0;rounded=0;" edge="1" parent="1">
          <mxGeometry width="80" relative="1" as="geometry">
            <mxPoint x="260" y="160" as="sourcePoint" />
            <mxPoint x="455" y="160" as="targetPoint" />
          </mxGeometry>
        </mxCell>
        <mxCell id="NwbqWwu3ObKQdLC_3_9J-9" value="return" style="html=1;verticalAlign=bottom;endArrow=open;dashed=1;endSize=8;curved=0;rounded=0;" edge="1" parent="1">
          <mxGeometry relative="1" as="geometry">
            <mxPoint x="455" y="199" as="sourcePoint" />
            <mxPoint x="260" y="199" as="targetPoint" />
          </mxGeometry>
        </mxCell>
        <mxCell id="2_4SJRCk8D6IfQPEJtKi-1" value="displayAssessCategory()" style="html=1;verticalAlign=bottom;endArrow=block;curved=0;rounded=0;" edge="1" parent="1">
          <mxGeometry width="80" relative="1" as="geometry">
            <mxPoint x="250" y="229" as="sourcePoint" />
            <mxPoint x="35" y="229" as="targetPoint" />
          </mxGeometry>
        </mxCell>
        <mxCell id="2_4SJRCk8D6IfQPEJtKi-2" value="Loop" style="shape=umlFrame;whiteSpace=wrap;html=1;pointerEvents=0;" vertex="1" parent="1">
          <mxGeometry x="170" y="140" width="340" height="70" as="geometry" />
        </mxCell>
        <mxCell id="2_4SJRCk8D6IfQPEJtKi-3" value="[category &amp;gt; 0]" style="text;html=1;align=center;verticalAlign=middle;resizable=0;points=[];autosize=1;strokeColor=none;fillColor=none;" vertex="1" parent="1">
          <mxGeometry x="160" y="168" width="100" height="30" as="geometry" />
        </mxCell>
        <mxCell id="2_4SJRCk8D6IfQPEJtKi-9" value="recordSelectedCategory()" style="html=1;verticalAlign=bottom;endArrow=block;curved=0;rounded=0;" edge="1" parent="1">
          <mxGeometry width="80" relative="1" as="geometry">
            <mxPoint x="35" y="260" as="sourcePoint" />
            <mxPoint x="250" y="260" as="targetPoint" />
          </mxGeometry>
        </mxCell>
        <mxCell id="2_4SJRCk8D6IfQPEJtKi-12" value="selectedCategory()" style="html=1;verticalAlign=bottom;endArrow=block;curved=0;rounded=0;" edge="1" parent="1">
          <mxGeometry width="80" relative="1" as="geometry">
            <mxPoint x="260" y="271" as="sourcePoint" />
            <mxPoint x="455" y="271" as="targetPoint" />
          </mxGeometry>
        </mxCell>
        <mxCell id="2_4SJRCk8D6IfQPEJtKi-13" value="return" style="html=1;verticalAlign=bottom;endArrow=open;dashed=1;endSize=8;curved=0;rounded=0;" edge="1" parent="1">
          <mxGeometry relative="1" as="geometry">
            <mxPoint x="455" y="310" as="sourcePoint" />
            <mxPoint x="260" y="310" as="targetPoint" />
          </mxGeometry>
        </mxCell>
        <mxCell id="2_4SJRCk8D6IfQPEJtKi-16" value="getQuestions()" style="html=1;verticalAlign=bottom;endArrow=block;curved=0;rounded=0;" edge="1" parent="1">
          <mxGeometry width="80" relative="1" as="geometry">
            <mxPoint x="260" y="338.5" as="sourcePoint" />
            <mxPoint x="645" y="338.5" as="targetPoint" />
          </mxGeometry>
        </mxCell>
        <mxCell id="2_4SJRCk8D6IfQPEJtKi-17" value="return" style="html=1;verticalAlign=bottom;endArrow=open;dashed=1;endSize=8;curved=0;rounded=0;" edge="1" parent="1">
          <mxGeometry relative="1" as="geometry">
            <mxPoint x="645" y="375" as="sourcePoint" />
            <mxPoint x="260" y="375" as="targetPoint" />
          </mxGeometry>
        </mxCell>
        <mxCell id="2_4SJRCk8D6IfQPEJtKi-18" value="Loop" style="shape=umlFrame;whiteSpace=wrap;html=1;pointerEvents=0;" vertex="1" parent="1">
          <mxGeometry x="170" y="322.5" width="510" height="75" as="geometry" />
        </mxCell>
        <mxCell id="2_4SJRCk8D6IfQPEJtKi-19" value="[questions&amp;gt;0]" style="text;html=1;align=center;verticalAlign=middle;resizable=0;points=[];autosize=1;strokeColor=none;fillColor=none;" vertex="1" parent="1">
          <mxGeometry x="160" y="348" width="100" height="30" as="geometry" />
        </mxCell>
        <mxCell id="2_4SJRCk8D6IfQPEJtKi-20" value="displayQuestions()" style="html=1;verticalAlign=bottom;endArrow=block;curved=0;rounded=0;" edge="1" parent="1">
          <mxGeometry width="80" relative="1" as="geometry">
            <mxPoint x="250" y="410" as="sourcePoint" />
            <mxPoint x="35" y="410" as="targetPoint" />
          </mxGeometry>
        </mxCell>
        <mxCell id="2_4SJRCk8D6IfQPEJtKi-21" value="enterAnswers()" style="html=1;verticalAlign=bottom;endArrow=block;curved=0;rounded=0;" edge="1" parent="1">
          <mxGeometry width="80" relative="1" as="geometry">
            <mxPoint x="-209.99956521739125" y="440.0000000000001" as="sourcePoint" />
            <mxPoint x="25.369999999999997" y="440.0000000000001" as="targetPoint" />
          </mxGeometry>
        </mxCell>
        <mxCell id="2_4SJRCk8D6IfQPEJtKi-22" value="recordAnswers()" style="html=1;verticalAlign=bottom;endArrow=block;curved=0;rounded=0;" edge="1" parent="1" source="VtCL2aZ2MKBCQQygjuYu-14" target="2_4SJRCk8D6IfQPEJtKi-23">
          <mxGeometry width="80" relative="1" as="geometry">
            <mxPoint x="100" y="470" as="sourcePoint" />
            <mxPoint x="180" y="470" as="targetPoint" />
          </mxGeometry>
        </mxCell>
        <mxCell id="2_4SJRCk8D6IfQPEJtKi-27" value="answers()" style="html=1;verticalAlign=bottom;endArrow=block;curved=0;rounded=0;" edge="1" parent="1">
          <mxGeometry width="80" relative="1" as="geometry">
            <mxPoint x="260" y="468" as="sourcePoint" />
            <mxPoint x="835" y="468" as="targetPoint" />
          </mxGeometry>
        </mxCell>
        <mxCell id="2_4SJRCk8D6IfQPEJtKi-28" value="return" style="html=1;verticalAlign=bottom;endArrow=open;dashed=1;endSize=8;curved=0;rounded=0;" edge="1" parent="1">
          <mxGeometry relative="1" as="geometry">
            <mxPoint x="835" y="496" as="sourcePoint" />
            <mxPoint x="260" y="496" as="targetPoint" />
          </mxGeometry>
        </mxCell>
        <mxCell id="2_4SJRCk8D6IfQPEJtKi-29" value="getAssessResults()" style="html=1;verticalAlign=bottom;endArrow=block;curved=0;rounded=0;" edge="1" parent="1">
          <mxGeometry width="80" relative="1" as="geometry">
            <mxPoint x="260" y="520" as="sourcePoint" />
            <mxPoint x="1015" y="520" as="targetPoint" />
            <mxPoint as="offset" />
          </mxGeometry>
        </mxCell>
        <mxCell id="2_4SJRCk8D6IfQPEJtKi-32" value="return" style="html=1;verticalAlign=bottom;endArrow=open;dashed=1;endSize=8;curved=0;rounded=0;" edge="1" parent="1">
          <mxGeometry relative="1" as="geometry">
            <mxPoint x="1015" y="568" as="sourcePoint" />
            <mxPoint x="260" y="568" as="targetPoint" />
          </mxGeometry>
        </mxCell>
        <mxCell id="2_4SJRCk8D6IfQPEJtKi-33" value="displayResults()" style="html=1;verticalAlign=bottom;endArrow=block;curved=0;rounded=0;" edge="1" parent="1">
          <mxGeometry width="80" relative="1" as="geometry">
            <mxPoint x="249" y="590" as="sourcePoint" />
            <mxPoint x="34" y="590" as="targetPoint" />
          </mxGeometry>
        </mxCell>
      </root>
    </mxGraphModel>
  </diagram>
</mxfile>
